<svg width="96" height="68" viewBox="0 0 96 68" fill="none" xmlns="http://www.w3.org/2000/svg">
<path d="M1.96082 67.7972C0.653608 67.7972 0 67.0859 0 65.6631V58.5935C0 57.6276 0.482331 57.1446 1.44699 57.1446V65.4151C1.44699 66.1934 1.8368 66.5825 2.6164 66.5825H4.73472C5.5432 66.5825 5.94744 66.9874 5.94744 67.7972H1.96082ZM9.18792 66.9408C10.0384 66.9408 10.7288 66.6501 11.259 66.0687V64.1217L9.84153 64.4327C8.47131 64.7346 7.7862 65.2228 7.7862 65.8974C7.7862 66.593 8.25344 66.9408 9.18792 66.9408ZM12.6292 63.1255V65.4604C12.6292 66.24 12.7329 67.0189 12.9403 67.7972C11.9651 67.7972 11.4303 67.4442 11.3358 66.7381C10.7347 67.5583 9.85793 67.9685 8.70559 67.9685C7.96798 67.9685 7.39443 67.7867 6.98494 67.4232C6.57414 67.0596 6.36874 66.5563 6.36874 65.9132C6.36874 64.7188 7.36031 63.93 9.34345 63.5468L11.259 63.1727C11.259 62.2488 10.5686 61.7868 9.18792 61.7868C8.88605 61.7868 8.56909 61.8229 8.23704 61.8951C7.90498 61.9672 7.71336 62.0033 7.66218 62.0033C7.25662 62.0033 6.99151 61.6923 6.86682 61.0702C7.58343 60.7788 8.39322 60.6331 9.2962 60.6331C11.5182 60.6331 12.6292 61.4639 12.6292 63.1255ZM16.7241 67.9055C15.4786 67.9055 14.8558 67.2775 14.8558 66.0214V58.8436C14.8558 58.0443 14.804 57.1826 14.7003 56.2587C15.7384 56.2587 16.2575 56.7207 16.2575 57.6446V66.0844C16.2575 66.6239 16.522 66.8936 17.0509 66.8936C17.4775 66.8936 17.6907 67.1895 17.6907 67.7815C17.3889 67.8641 17.0667 67.9055 16.7241 67.9055ZM22.0967 68C19.6673 68 18.4526 66.7643 18.4526 64.2929C18.4526 63.0684 18.7775 62.1267 19.4271 61.4678C20.0755 60.8077 20.9811 60.4776 22.1439 60.4776C24.0339 60.4776 24.9789 61.1837 24.9789 62.5959C24.9789 64.0186 24.0496 64.73 22.1912 64.73H19.8543C19.8963 65.4663 20.107 66.0109 20.4863 66.364C20.8643 66.7171 21.4431 66.8936 22.2227 66.8936C22.5757 66.8936 22.936 66.8417 23.3035 66.7381C23.6723 66.6344 23.8882 66.5825 23.9512 66.5825C24.3869 66.5825 24.6671 66.8942 24.7918 67.5177C23.9505 67.8392 23.0522 68 22.0967 68ZM19.8543 63.7476H21.6931C23.0003 63.7476 23.6539 63.3742 23.6539 62.6274C23.6434 61.8793 23.1145 61.5052 22.0671 61.5052C20.6851 61.5052 19.9475 62.2527 19.8543 63.7476ZM33.2474 67.9527C32.2092 67.9527 31.6901 67.5013 31.6901 66.5983V63.0467C31.6901 62.0506 31.1973 61.5525 30.2117 61.5525C29.432 61.5525 28.7463 61.8275 28.1544 62.3774V66.5983C28.1544 67.5013 27.6353 67.9527 26.5971 67.9527C26.7008 66.9776 26.7526 65.9965 26.7526 65.0095V59.1389C26.7526 58.1624 26.7008 57.2023 26.5971 56.2587C27.6353 56.2587 28.1544 56.7305 28.1544 57.6742V61.6923C28.7161 60.8825 29.5521 60.4776 30.6625 60.4776C32.2821 60.4776 33.0919 61.3031 33.0919 62.9542V65.0095C33.0919 66.0687 33.1437 67.0498 33.2474 67.9527ZM42.4668 67.7972C41.1478 67.7972 40.4883 67.0859 40.4883 65.6631V59.1704C40.4883 57.9248 41.111 57.3021 42.3566 57.3021H46.7802C46.7802 58.1119 46.3858 58.5168 45.597 58.5168H42.7306C42.1912 58.5168 41.9215 58.7865 41.9215 59.3259V61.8478H45.4415C45.8562 61.8478 46.0636 62.0506 46.0636 62.4561C46.0636 62.8604 45.8562 63.0625 45.4415 63.0625H41.9215V65.3993C41.9215 66.1881 42.3159 66.5825 43.1047 66.5825H45.6285C46.4278 66.5825 46.8275 66.9874 46.8275 67.7972H42.4668ZM51.2334 67.9055C49.5928 67.9055 48.7725 67.1062 48.7725 65.5076V61.7868C48.4103 61.7868 47.9385 61.8386 47.3571 61.9423C47.3571 61.2257 47.611 60.8155 48.1189 60.7119C48.6282 60.6082 48.8828 60.2604 48.8828 59.6685V58.1427C49.7333 58.1427 50.1585 58.4853 50.1585 59.1704V60.6646H52.7139C52.7139 61.4127 52.3917 61.7868 51.7473 61.7868H50.1585V65.4308C50.1585 66.2813 50.6159 66.7066 51.5307 66.7066C52.246 66.7066 52.6036 67.0596 52.6036 67.7657C52.2506 67.8589 51.7938 67.9055 51.2334 67.9055ZM65.1561 67.9527C64.1179 67.9527 63.5988 67.4908 63.5988 66.5668V63.094C63.5988 62.0663 63.1263 61.5525 62.1814 61.5525C61.4543 61.5525 60.8262 61.8275 60.2973 62.3774C60.3183 62.5546 60.3288 64.1591 60.3288 67.1909C60.3288 67.6988 60.0952 67.9527 59.628 67.9527C59.1607 67.9527 58.9271 67.6988 58.9271 67.1909V63.0625C58.9271 62.0558 58.4494 61.5525 57.4939 61.5525C56.7983 61.5525 56.186 61.8275 55.6571 62.3774V66.5668C55.6571 67.4908 55.138 67.9527 54.0999 67.9527C54.2035 67.1534 54.2554 66.3542 54.2554 65.5549V63.0625C54.2554 62.2632 54.2035 61.4639 54.0999 60.6646C55.075 60.6646 55.5626 61.0282 55.5626 61.7553C56.0613 60.9035 56.8508 60.4776 57.9309 60.4776C59.0728 60.4776 59.8097 60.914 60.1418 61.7868C60.7337 60.914 61.554 60.4776 62.6027 60.4776C64.2012 60.4776 65.0005 61.3084 65.0005 62.97V65.8659C65.0005 66.5615 65.0524 67.2571 65.1561 67.9527ZM68.4418 59.4657C68.3066 59.4657 68.1767 59.4401 68.052 59.3889C67.9273 59.3364 67.8158 59.2609 67.7173 59.1625C67.6189 59.0641 67.5434 58.9525 67.4909 58.8278C67.4398 58.7031 67.4142 58.5732 67.4142 58.438C67.4142 58.3028 67.4398 58.1729 67.4909 58.0482C67.5434 57.9235 67.6189 57.8146 67.7173 57.7214C67.8158 57.6282 67.9273 57.5554 68.052 57.5029C68.1767 57.4517 68.3066 57.4261 68.4418 57.4261C68.577 57.4261 68.7069 57.4517 68.8316 57.5029C68.9563 57.5554 69.0652 57.6282 69.1584 57.7214C69.2516 57.8146 69.3245 57.9235 69.377 58.0482C69.4281 58.1729 69.4537 58.3028 69.4537 58.438C69.4537 58.5732 69.4281 58.7031 69.377 58.8278C69.3245 58.9525 69.2516 59.0641 69.1584 59.1625C69.0652 59.2609 68.9563 59.3364 68.8316 59.3889C68.7069 59.4401 68.577 59.4657 68.4418 59.4657ZM69.749 67.9527C68.7214 67.9527 68.2075 67.496 68.2075 66.5825V62.1293C68.2075 61.901 68.0934 61.7868 67.865 61.7868H67.0086C67.0086 61.0387 67.3256 60.6646 67.9595 60.6646H68.3178C69.1683 60.6646 69.5935 61.0958 69.5935 61.9581V65.5549C69.5935 66.3542 69.6454 67.1534 69.749 67.9527ZM78.7204 67.9527C77.6822 67.9527 77.1632 67.4908 77.1632 66.5668V63.2495C77.1632 62.1182 76.6441 61.5525 75.6059 61.5525C74.8158 61.5525 74.1563 61.8275 73.6274 62.3774V66.5668C73.6274 67.4908 73.1083 67.9527 72.0701 67.9527C72.1738 67.1534 72.2257 66.3542 72.2257 65.5549V63.0625C72.2257 62.2632 72.1738 61.4639 72.0701 60.6646C73.0466 60.6646 73.5348 61.0282 73.5348 61.7553C74.0323 60.9035 74.9195 60.4776 76.1965 60.4776C77.7754 60.4776 78.5649 61.3602 78.5649 63.1255V65.8659C78.5649 66.5615 78.6167 67.2571 78.7204 67.9527ZM82.9866 66.9408C83.8384 66.9408 84.5287 66.6501 85.0576 66.0687V64.1217L83.6402 64.4327C82.27 64.7346 81.5849 65.2228 81.5849 65.8974C81.5849 66.593 82.0521 66.9408 82.9866 66.9408ZM86.4279 63.1255V65.4604C86.4279 66.24 86.5315 67.0189 86.7389 67.7972C85.7638 67.7972 85.2296 67.4442 85.1364 66.7381C84.534 67.5583 83.6566 67.9685 82.5042 67.9685C81.7666 67.9685 81.1931 67.7867 80.7836 67.4232C80.3728 67.0596 80.1674 66.5563 80.1674 65.9132C80.1674 64.7188 81.159 63.93 83.1421 63.5468L85.0576 63.1727C85.0576 62.2488 84.3673 61.7868 82.9866 61.7868C82.686 61.7868 82.3697 61.8229 82.0377 61.8951C81.7043 61.9672 81.512 62.0033 81.4608 62.0033C81.0553 62.0033 80.7902 61.6923 80.6655 61.0702C81.3821 60.7788 82.1919 60.6331 83.0948 60.6331C85.3169 60.6331 86.4279 61.4639 86.4279 63.1255ZM95.0862 67.9527C94.048 67.9527 93.529 67.4908 93.529 66.5668V63.2495C93.529 62.1182 93.0099 61.5525 91.9717 61.5525C91.1829 61.5525 90.5241 61.8275 89.9951 62.3774V66.5668C89.9951 67.4908 89.4761 67.9527 88.4379 67.9527C88.5416 67.1534 88.5934 66.3542 88.5934 65.5549V63.0625C88.5934 62.2632 88.5416 61.4639 88.4379 60.6646C89.4131 60.6646 89.9006 61.0282 89.9006 61.7553C90.3994 60.9035 91.2873 60.4776 92.5643 60.4776C94.1419 60.4776 94.9307 61.3602 94.9307 63.1255V65.8659C94.9307 66.5615 94.9825 67.2571 95.0862 67.9527Z" fill="#D3303A"/>
<path d="M42.7119 15.5216C40.0874 15.5216 37.9742 13.388 37.9742 10.7953C37.9742 8.17313 40.0874 6.05767 42.7119 6.05767C45.3159 6.05767 47.4495 8.17313 47.4495 10.7953C47.4495 13.388 45.3159 15.5216 42.7119 15.5216Z" fill="#F39419"/>
<path d="M71.3895 23.9353C71.3918 23.9308 71.3963 23.9262 71.3963 23.9262C75.8136 19.2499 76.802 15.1598 76.802 15.1598C73.53 15.8165 68.4424 20.0066 67.9584 20.411H67.9516C67.9425 20.4201 67.9357 20.4292 67.9289 20.4383C67.9243 20.4406 67.9221 20.4406 67.9221 20.4406C67.9221 20.4406 67.9221 20.4451 67.9198 20.4451C63.5048 25.1191 62.5164 29.2137 62.5164 29.2137C65.7884 28.5571 70.876 24.3648 71.36 23.958H71.3668C71.3759 23.9489 71.3827 23.9444 71.3895 23.9353Z" fill="#D3303A"/>
<path d="M82.8178 27.5974C82.8178 27.5974 74.8467 26.4545 69.6728 39.9971C64.5171 53.5534 58.7114 51.7674 43.8895 52.5786C43.8895 52.5786 52.7581 52.2673 61.2927 37.2659C69.8341 22.2735 81.5635 26.3432 82.8178 27.5974Z" fill="#D3303A"/>
<path d="M13.4583 5.15221e-05C13.4583 5.15221e-05 12.3176 7.97339 25.858 13.145C39.4142 18.2985 37.6283 24.1019 38.4417 38.9329C38.4417 38.9329 38.1259 30.0597 23.129 21.5251C8.13439 12.9837 12.2063 1.25434 13.4583 5.15221e-05Z" fill="#13A49A"/>
<path d="M63.9085 9.19079C63.9085 9.19079 65.0082 17.1755 51.4815 22.3267C37.9434 27.4915 39.7112 33.2949 38.9 48.1327C38.9 48.1327 39.2431 39.2527 54.2377 30.7181C69.2096 22.1654 65.1446 10.4473 63.9085 9.19079Z" fill="#D3303A"/>
</svg>
